<mxfile host="app.diagrams.net" modified="2023-06-02T05:58:38.910Z" agent="Mozilla/5.0 (Windows NT 10.0; Win64; x64) AppleWebKit/537.36 (KHTML, like Gecko) Chrome/113.0.0.0 Safari/537.36" etag="I9nHkDXDZBMOkYuVGM46" version="21.3.7" type="device">
  <diagram name="Page-1" id="R267TAzrgGcStoHF7DOQ">
    <mxGraphModel dx="880" dy="452" grid="1" gridSize="10" guides="1" tooltips="1" connect="1" arrows="1" fold="1" page="1" pageScale="2" pageWidth="827" pageHeight="1169" math="0" shadow="0">
      <root>
        <mxCell id="0" />
        <mxCell id="1" parent="0" />
        <mxCell id="WUXv7Roz7zW6luZ2Xucw-29" value="" style="group" parent="1" vertex="1" connectable="0">
          <mxGeometry x="210" y="120" width="560" height="1070" as="geometry" />
        </mxCell>
        <mxCell id="WUXv7Roz7zW6luZ2Xucw-3" value="" style="ellipse;whiteSpace=wrap;html=1;aspect=fixed;fillColor=#000000;" parent="WUXv7Roz7zW6luZ2Xucw-29" vertex="1">
          <mxGeometry x="245" width="70" height="70" as="geometry" />
        </mxCell>
        <mxCell id="WUXv7Roz7zW6luZ2Xucw-15" value="" style="rounded=1;whiteSpace=wrap;html=1;direction=south;" parent="WUXv7Roz7zW6luZ2Xucw-29" vertex="1">
          <mxGeometry y="140" width="560" height="930" as="geometry" />
        </mxCell>
        <mxCell id="WUXv7Roz7zW6luZ2Xucw-4" value="" style="endArrow=classic;html=1;rounded=0;entryX=0.5;entryY=0;entryDx=0;entryDy=0;exitX=0.5;exitY=1;exitDx=0;exitDy=0;strokeWidth=3;" parent="WUXv7Roz7zW6luZ2Xucw-29" source="WUXv7Roz7zW6luZ2Xucw-3" target="WUXv7Roz7zW6luZ2Xucw-10" edge="1">
          <mxGeometry width="50" height="50" relative="1" as="geometry">
            <mxPoint x="-935" y="-30" as="sourcePoint" />
            <mxPoint x="-80" y="145.42999999999984" as="targetPoint" />
          </mxGeometry>
        </mxCell>
        <mxCell id="WUXv7Roz7zW6luZ2Xucw-9" value="" style="group" parent="WUXv7Roz7zW6luZ2Xucw-29" vertex="1" connectable="0">
          <mxGeometry x="220" y="190" width="120" height="60" as="geometry" />
        </mxCell>
        <mxCell id="WUXv7Roz7zW6luZ2Xucw-10" value="" style="rounded=1;whiteSpace=wrap;html=1;" parent="WUXv7Roz7zW6luZ2Xucw-9" vertex="1">
          <mxGeometry width="120" height="60" as="geometry" />
        </mxCell>
        <mxCell id="WUXv7Roz7zW6luZ2Xucw-11" value="&lt;span style=&quot;font-size: 14px;&quot;&gt;LoginPage&lt;/span&gt;" style="text;html=1;strokeColor=none;fillColor=none;align=center;verticalAlign=middle;whiteSpace=wrap;rounded=0;" parent="WUXv7Roz7zW6luZ2Xucw-9" vertex="1">
          <mxGeometry x="5" y="15" width="110" height="30" as="geometry" />
        </mxCell>
        <mxCell id="WUXv7Roz7zW6luZ2Xucw-19" value="" style="rhombus;whiteSpace=wrap;html=1;" parent="WUXv7Roz7zW6luZ2Xucw-29" vertex="1">
          <mxGeometry x="240" y="330" width="80" height="80" as="geometry" />
        </mxCell>
        <mxCell id="WUXv7Roz7zW6luZ2Xucw-18" value="" style="endArrow=classic;html=1;rounded=0;entryX=0.5;entryY=0;entryDx=0;entryDy=0;strokeWidth=3;exitX=0.5;exitY=1;exitDx=0;exitDy=0;" parent="WUXv7Roz7zW6luZ2Xucw-29" source="WUXv7Roz7zW6luZ2Xucw-10" target="WUXv7Roz7zW6luZ2Xucw-19" edge="1">
          <mxGeometry width="50" height="50" relative="1" as="geometry">
            <mxPoint x="335" y="190" as="sourcePoint" />
            <mxPoint x="335" y="270" as="targetPoint" />
          </mxGeometry>
        </mxCell>
        <mxCell id="WUXv7Roz7zW6luZ2Xucw-20" value="" style="group" parent="WUXv7Roz7zW6luZ2Xucw-29" vertex="1" connectable="0">
          <mxGeometry x="40" y="430" width="120" height="60" as="geometry" />
        </mxCell>
        <mxCell id="WUXv7Roz7zW6luZ2Xucw-21" value="" style="rounded=1;whiteSpace=wrap;html=1;" parent="WUXv7Roz7zW6luZ2Xucw-20" vertex="1">
          <mxGeometry width="120" height="60" as="geometry" />
        </mxCell>
        <mxCell id="WUXv7Roz7zW6luZ2Xucw-22" value="&lt;span style=&quot;font-size: 14px;&quot;&gt;Sign up&lt;/span&gt;" style="text;html=1;strokeColor=none;fillColor=none;align=center;verticalAlign=middle;whiteSpace=wrap;rounded=0;" parent="WUXv7Roz7zW6luZ2Xucw-20" vertex="1">
          <mxGeometry x="5" y="15" width="110" height="30" as="geometry" />
        </mxCell>
        <mxCell id="WUXv7Roz7zW6luZ2Xucw-23" value="" style="endArrow=classic;html=1;rounded=0;entryX=0.5;entryY=0;entryDx=0;entryDy=0;strokeWidth=3;exitX=0;exitY=0.5;exitDx=0;exitDy=0;" parent="WUXv7Roz7zW6luZ2Xucw-29" source="WUXv7Roz7zW6luZ2Xucw-19" target="WUXv7Roz7zW6luZ2Xucw-21" edge="1">
          <mxGeometry width="50" height="50" relative="1" as="geometry">
            <mxPoint x="800" y="330" as="sourcePoint" />
            <mxPoint x="705" y="330" as="targetPoint" />
            <Array as="points">
              <mxPoint x="100" y="370" />
            </Array>
          </mxGeometry>
        </mxCell>
        <mxCell id="WUXv7Roz7zW6luZ2Xucw-25" value="&lt;font style=&quot;font-size: 16px;&quot;&gt;Wits Overflow&lt;/font&gt;" style="text;html=1;strokeColor=none;fillColor=none;align=left;verticalAlign=middle;whiteSpace=wrap;rounded=0;" parent="WUXv7Roz7zW6luZ2Xucw-29" vertex="1">
          <mxGeometry x="10" y="190" width="110" height="30" as="geometry" />
        </mxCell>
        <mxCell id="WUXv7Roz7zW6luZ2Xucw-26" value="" style="group" parent="WUXv7Roz7zW6luZ2Xucw-29" vertex="1" connectable="0">
          <mxGeometry x="220" y="550" width="120" height="60" as="geometry" />
        </mxCell>
        <mxCell id="WUXv7Roz7zW6luZ2Xucw-27" value="" style="rounded=1;whiteSpace=wrap;html=1;" parent="WUXv7Roz7zW6luZ2Xucw-26" vertex="1">
          <mxGeometry width="120" height="60" as="geometry" />
        </mxCell>
        <mxCell id="WUXv7Roz7zW6luZ2Xucw-28" value="&lt;span style=&quot;font-size: 14px;&quot;&gt;QuestionsPage&lt;/span&gt;" style="text;html=1;strokeColor=none;fillColor=none;align=center;verticalAlign=middle;whiteSpace=wrap;rounded=0;" parent="WUXv7Roz7zW6luZ2Xucw-26" vertex="1">
          <mxGeometry x="5" y="15" width="110" height="30" as="geometry" />
        </mxCell>
        <mxCell id="WUXv7Roz7zW6luZ2Xucw-30" value="" style="endArrow=classic;html=1;rounded=0;entryX=0;entryY=0.5;entryDx=0;entryDy=0;strokeWidth=3;exitX=0.431;exitY=1.028;exitDx=0;exitDy=0;exitPerimeter=0;" parent="WUXv7Roz7zW6luZ2Xucw-29" source="WUXv7Roz7zW6luZ2Xucw-21" target="WUXv7Roz7zW6luZ2Xucw-28" edge="1">
          <mxGeometry width="50" height="50" relative="1" as="geometry">
            <mxPoint x="250" y="380" as="sourcePoint" />
            <mxPoint x="110" y="440" as="targetPoint" />
            <Array as="points">
              <mxPoint x="90" y="580" />
            </Array>
          </mxGeometry>
        </mxCell>
        <mxCell id="WUXv7Roz7zW6luZ2Xucw-32" value="" style="endArrow=classic;html=1;rounded=0;entryX=0.5;entryY=0;entryDx=0;entryDy=0;strokeWidth=3;exitX=0.5;exitY=1;exitDx=0;exitDy=0;" parent="WUXv7Roz7zW6luZ2Xucw-29" source="WUXv7Roz7zW6luZ2Xucw-19" target="WUXv7Roz7zW6luZ2Xucw-27" edge="1">
          <mxGeometry width="50" height="50" relative="1" as="geometry">
            <mxPoint x="290" y="260" as="sourcePoint" />
            <mxPoint x="290" y="340" as="targetPoint" />
          </mxGeometry>
        </mxCell>
        <mxCell id="WUXv7Roz7zW6luZ2Xucw-34" value="" style="group" parent="WUXv7Roz7zW6luZ2Xucw-29" vertex="1" connectable="0">
          <mxGeometry x="400" y="410" width="140" height="60" as="geometry" />
        </mxCell>
        <mxCell id="WUXv7Roz7zW6luZ2Xucw-35" value="" style="rounded=1;whiteSpace=wrap;html=1;" parent="WUXv7Roz7zW6luZ2Xucw-34" vertex="1">
          <mxGeometry x="-10" width="150" height="60" as="geometry" />
        </mxCell>
        <mxCell id="WUXv7Roz7zW6luZ2Xucw-36" value="&lt;span style=&quot;font-size: 14px;&quot;&gt;SingleQuestionPage&lt;br&gt;&lt;/span&gt;" style="text;html=1;strokeColor=none;fillColor=none;align=center;verticalAlign=middle;whiteSpace=wrap;rounded=0;" parent="WUXv7Roz7zW6luZ2Xucw-34" vertex="1">
          <mxGeometry x="5" y="15" width="110" height="30" as="geometry" />
        </mxCell>
        <mxCell id="WUXv7Roz7zW6luZ2Xucw-33" value="" style="endArrow=classic;html=1;rounded=0;entryX=0.5;entryY=1;entryDx=0;entryDy=0;strokeWidth=3;exitX=1;exitY=0.5;exitDx=0;exitDy=0;" parent="WUXv7Roz7zW6luZ2Xucw-29" source="WUXv7Roz7zW6luZ2Xucw-61" target="WUXv7Roz7zW6luZ2Xucw-35" edge="1">
          <mxGeometry width="50" height="50" relative="1" as="geometry">
            <mxPoint x="250" y="380" as="sourcePoint" />
            <mxPoint x="110" y="440" as="targetPoint" />
            <Array as="points">
              <mxPoint x="465" y="770" />
            </Array>
          </mxGeometry>
        </mxCell>
        <mxCell id="WUXv7Roz7zW6luZ2Xucw-61" value="" style="rhombus;whiteSpace=wrap;html=1;" parent="WUXv7Roz7zW6luZ2Xucw-29" vertex="1">
          <mxGeometry x="240" y="730" width="80" height="80" as="geometry" />
        </mxCell>
        <mxCell id="WUXv7Roz7zW6luZ2Xucw-62" value="" style="endArrow=classic;html=1;rounded=0;entryX=0.5;entryY=0;entryDx=0;entryDy=0;strokeWidth=3;exitX=0.5;exitY=1;exitDx=0;exitDy=0;" parent="WUXv7Roz7zW6luZ2Xucw-29" source="WUXv7Roz7zW6luZ2Xucw-27" target="WUXv7Roz7zW6luZ2Xucw-61" edge="1">
          <mxGeometry width="50" height="50" relative="1" as="geometry">
            <mxPoint x="290" y="260" as="sourcePoint" />
            <mxPoint x="290" y="340" as="targetPoint" />
          </mxGeometry>
        </mxCell>
        <mxCell id="WUXv7Roz7zW6luZ2Xucw-63" value="" style="endArrow=classic;html=1;rounded=0;entryX=1;entryY=0.5;entryDx=0;entryDy=0;strokeWidth=3;exitX=0;exitY=0.5;exitDx=0;exitDy=0;" parent="WUXv7Roz7zW6luZ2Xucw-29" source="WUXv7Roz7zW6luZ2Xucw-61" target="WUXv7Roz7zW6luZ2Xucw-91" edge="1">
          <mxGeometry width="50" height="50" relative="1" as="geometry">
            <mxPoint x="290" y="620" as="sourcePoint" />
            <mxPoint x="290" y="740" as="targetPoint" />
          </mxGeometry>
        </mxCell>
        <mxCell id="WUXv7Roz7zW6luZ2Xucw-89" value="" style="group" parent="WUXv7Roz7zW6luZ2Xucw-29" vertex="1" connectable="0">
          <mxGeometry x="10" y="740" width="120" height="60" as="geometry" />
        </mxCell>
        <mxCell id="WUXv7Roz7zW6luZ2Xucw-90" value="" style="rounded=1;whiteSpace=wrap;html=1;" parent="WUXv7Roz7zW6luZ2Xucw-89" vertex="1">
          <mxGeometry width="120" height="60" as="geometry" />
        </mxCell>
        <mxCell id="WUXv7Roz7zW6luZ2Xucw-91" value="&lt;span style=&quot;font-size: 14px;&quot;&gt;AskPage&lt;/span&gt;" style="text;html=1;strokeColor=none;fillColor=none;align=center;verticalAlign=middle;whiteSpace=wrap;rounded=0;" parent="WUXv7Roz7zW6luZ2Xucw-89" vertex="1">
          <mxGeometry x="5" y="15" width="110" height="30" as="geometry" />
        </mxCell>
        <mxCell id="WUXv7Roz7zW6luZ2Xucw-93" value="" style="group" parent="WUXv7Roz7zW6luZ2Xucw-29" vertex="1" connectable="0">
          <mxGeometry x="220" y="900" width="120" height="60" as="geometry" />
        </mxCell>
        <mxCell id="WUXv7Roz7zW6luZ2Xucw-94" value="" style="rounded=1;whiteSpace=wrap;html=1;" parent="WUXv7Roz7zW6luZ2Xucw-93" vertex="1">
          <mxGeometry width="120" height="60" as="geometry" />
        </mxCell>
        <mxCell id="WUXv7Roz7zW6luZ2Xucw-95" value="&lt;span style=&quot;font-size: 14px;&quot;&gt;ProfilePage&lt;/span&gt;" style="text;html=1;strokeColor=none;fillColor=none;align=center;verticalAlign=middle;whiteSpace=wrap;rounded=0;" parent="WUXv7Roz7zW6luZ2Xucw-93" vertex="1">
          <mxGeometry x="5" y="15" width="110" height="30" as="geometry" />
        </mxCell>
        <mxCell id="WUXv7Roz7zW6luZ2Xucw-99" value="" style="endArrow=classic;html=1;rounded=0;entryX=0.5;entryY=0;entryDx=0;entryDy=0;strokeWidth=3;exitX=0.5;exitY=1;exitDx=0;exitDy=0;" parent="WUXv7Roz7zW6luZ2Xucw-29" source="WUXv7Roz7zW6luZ2Xucw-61" target="WUXv7Roz7zW6luZ2Xucw-94" edge="1">
          <mxGeometry width="50" height="50" relative="1" as="geometry">
            <mxPoint x="280" y="816" as="sourcePoint" />
            <mxPoint x="290" y="560" as="targetPoint" />
          </mxGeometry>
        </mxCell>
        <mxCell id="WUXv7Roz7zW6luZ2Xucw-102" value="&lt;font style=&quot;font-size: 14px;&quot;&gt;[Registered User]&lt;/font&gt;" style="text;html=1;strokeColor=none;fillColor=none;align=left;verticalAlign=middle;whiteSpace=wrap;rounded=0;rotation=90;" parent="WUXv7Roz7zW6luZ2Xucw-29" vertex="1">
          <mxGeometry x="240" y="460" width="120" height="30" as="geometry" />
        </mxCell>
        <mxCell id="WUXv7Roz7zW6luZ2Xucw-103" value="&lt;font style=&quot;font-size: 14px;&quot;&gt;[Click on a question]&lt;/font&gt;" style="text;html=1;strokeColor=none;fillColor=none;align=left;verticalAlign=middle;whiteSpace=wrap;rounded=0;" parent="WUXv7Roz7zW6luZ2Xucw-29" vertex="1">
          <mxGeometry x="340" y="780" width="130" height="30" as="geometry" />
        </mxCell>
        <mxCell id="WUXv7Roz7zW6luZ2Xucw-104" value="&lt;font style=&quot;font-size: 14px;&quot;&gt;[Unregistered User]&lt;/font&gt;" style="text;html=1;strokeColor=none;fillColor=none;align=left;verticalAlign=middle;whiteSpace=wrap;rounded=0;" parent="WUXv7Roz7zW6luZ2Xucw-29" vertex="1">
          <mxGeometry x="110" y="340" width="130" height="30" as="geometry" />
        </mxCell>
        <mxCell id="WUXv7Roz7zW6luZ2Xucw-105" value="&lt;font style=&quot;font-size: 14px;&quot;&gt;[After&amp;nbsp;User&lt;br&gt;Registration]&lt;/font&gt;" style="text;html=1;strokeColor=none;fillColor=none;align=left;verticalAlign=middle;whiteSpace=wrap;rounded=0;" parent="WUXv7Roz7zW6luZ2Xucw-29" vertex="1">
          <mxGeometry x="100" y="590" width="100" height="30" as="geometry" />
        </mxCell>
        <mxCell id="WUXv7Roz7zW6luZ2Xucw-143" value="&lt;font style=&quot;font-size: 14px;&quot;&gt;[Ask question&lt;br&gt;button]&lt;/font&gt;" style="text;html=1;strokeColor=none;fillColor=none;align=left;verticalAlign=middle;whiteSpace=wrap;rounded=0;" parent="WUXv7Roz7zW6luZ2Xucw-29" vertex="1">
          <mxGeometry x="145" y="780" width="100" height="30" as="geometry" />
        </mxCell>
        <mxCell id="WUXv7Roz7zW6luZ2Xucw-182" value="&lt;font style=&quot;font-size: 14px;&quot;&gt;[Profile Page&lt;br&gt;button]&lt;/font&gt;" style="text;html=1;strokeColor=none;fillColor=none;align=left;verticalAlign=middle;whiteSpace=wrap;rounded=0;" parent="WUXv7Roz7zW6luZ2Xucw-29" vertex="1">
          <mxGeometry x="280" y="840" width="100" height="30" as="geometry" />
        </mxCell>
        <mxCell id="WUXv7Roz7zW6luZ2Xucw-183" value="&lt;font style=&quot;font-size: 14px;&quot;&gt;[Log Off&lt;br&gt;button]&lt;/font&gt;" style="text;html=1;strokeColor=none;fillColor=none;align=left;verticalAlign=middle;whiteSpace=wrap;rounded=0;" parent="WUXv7Roz7zW6luZ2Xucw-29" vertex="1">
          <mxGeometry x="280" y="1000" width="100" height="30" as="geometry" />
        </mxCell>
        <mxCell id="8SfqmQW3yApdBg0pFhgM-1" value="" style="endArrow=classic;html=1;rounded=0;entryX=1;entryY=0;entryDx=0;entryDy=0;strokeWidth=3;exitX=0.175;exitY=0.713;exitDx=0;exitDy=0;exitPerimeter=0;" edge="1" parent="WUXv7Roz7zW6luZ2Xucw-29" source="WUXv7Roz7zW6luZ2Xucw-61" target="8SfqmQW3yApdBg0pFhgM-3">
          <mxGeometry width="50" height="50" relative="1" as="geometry">
            <mxPoint x="250" y="780" as="sourcePoint" />
            <mxPoint x="135" y="780" as="targetPoint" />
          </mxGeometry>
        </mxCell>
        <mxCell id="8SfqmQW3yApdBg0pFhgM-2" value="" style="group" vertex="1" connectable="0" parent="WUXv7Roz7zW6luZ2Xucw-29">
          <mxGeometry x="10" y="910" width="120" height="60" as="geometry" />
        </mxCell>
        <mxCell id="8SfqmQW3yApdBg0pFhgM-3" value="" style="rounded=1;whiteSpace=wrap;html=1;" vertex="1" parent="8SfqmQW3yApdBg0pFhgM-2">
          <mxGeometry width="120" height="60" as="geometry" />
        </mxCell>
        <mxCell id="8SfqmQW3yApdBg0pFhgM-4" value="&lt;span style=&quot;font-size: 14px;&quot;&gt;ReportsPage&lt;/span&gt;" style="text;html=1;strokeColor=none;fillColor=none;align=center;verticalAlign=middle;whiteSpace=wrap;rounded=0;" vertex="1" parent="8SfqmQW3yApdBg0pFhgM-2">
          <mxGeometry x="5" y="15" width="110" height="30" as="geometry" />
        </mxCell>
        <mxCell id="8SfqmQW3yApdBg0pFhgM-5" value="&lt;font style=&quot;font-size: 14px;&quot;&gt;[Report Page&lt;br&gt;Icon for moderators]&lt;/font&gt;" style="text;html=1;strokeColor=none;fillColor=none;align=left;verticalAlign=middle;whiteSpace=wrap;rounded=0;" vertex="1" parent="WUXv7Roz7zW6luZ2Xucw-29">
          <mxGeometry x="15" y="850" width="135" height="30" as="geometry" />
        </mxCell>
        <mxCell id="8SfqmQW3yApdBg0pFhgM-7" value="" style="group" vertex="1" connectable="0" parent="WUXv7Roz7zW6luZ2Xucw-29">
          <mxGeometry x="22.5" y="640" width="120" height="60" as="geometry" />
        </mxCell>
        <mxCell id="8SfqmQW3yApdBg0pFhgM-8" value="" style="rounded=1;whiteSpace=wrap;html=1;" vertex="1" parent="8SfqmQW3yApdBg0pFhgM-7">
          <mxGeometry width="120" height="60" as="geometry" />
        </mxCell>
        <mxCell id="8SfqmQW3yApdBg0pFhgM-9" value="&lt;span style=&quot;font-size: 14px;&quot;&gt;CommunityPage&lt;/span&gt;" style="text;html=1;strokeColor=none;fillColor=none;align=center;verticalAlign=middle;whiteSpace=wrap;rounded=0;" vertex="1" parent="8SfqmQW3yApdBg0pFhgM-7">
          <mxGeometry x="5" y="15" width="110" height="30" as="geometry" />
        </mxCell>
        <mxCell id="8SfqmQW3yApdBg0pFhgM-6" value="" style="endArrow=classic;html=1;rounded=0;strokeWidth=3;exitX=0;exitY=0;exitDx=0;exitDy=0;entryX=1;entryY=1;entryDx=0;entryDy=0;" edge="1" parent="WUXv7Roz7zW6luZ2Xucw-29" source="WUXv7Roz7zW6luZ2Xucw-61" target="8SfqmQW3yApdBg0pFhgM-8">
          <mxGeometry width="50" height="50" relative="1" as="geometry">
            <mxPoint x="264" y="797" as="sourcePoint" />
            <mxPoint x="140" y="920" as="targetPoint" />
          </mxGeometry>
        </mxCell>
        <mxCell id="8SfqmQW3yApdBg0pFhgM-10" value="&lt;font style=&quot;font-size: 14px;&quot;&gt;[Community Page&lt;br&gt;Icon]&lt;/font&gt;" style="text;html=1;strokeColor=none;fillColor=none;align=left;verticalAlign=middle;whiteSpace=wrap;rounded=0;" vertex="1" parent="WUXv7Roz7zW6luZ2Xucw-29">
          <mxGeometry x="150" y="670" width="115" height="30" as="geometry" />
        </mxCell>
        <mxCell id="WUXv7Roz7zW6luZ2Xucw-100" value="" style="ellipse;html=1;shape=endState;fillColor=#000000;strokeColor=default;" parent="1" vertex="1">
          <mxGeometry x="450" y="1290" width="80" height="80" as="geometry" />
        </mxCell>
        <mxCell id="WUXv7Roz7zW6luZ2Xucw-101" value="" style="endArrow=classic;html=1;rounded=0;strokeWidth=3;entryX=0.5;entryY=0;entryDx=0;entryDy=0;exitX=0.5;exitY=1;exitDx=0;exitDy=0;" parent="1" source="WUXv7Roz7zW6luZ2Xucw-94" target="WUXv7Roz7zW6luZ2Xucw-100" edge="1">
          <mxGeometry width="50" height="50" relative="1" as="geometry">
            <mxPoint x="420" y="940" as="sourcePoint" />
            <mxPoint x="400" y="1100" as="targetPoint" />
          </mxGeometry>
        </mxCell>
      </root>
    </mxGraphModel>
  </diagram>
</mxfile>
